# xmcd
#
# Track frame offsets:
#	150
#	10629
#	19733
#	33149
#	42120
#	64731
#	77095
#	87965
#	100479
#	109377
#
# Disc length: 1668 seconds
#
# Revision: 1
# Processed by: cddbd v1.5.2PL0 Copyright (c) Steve Scherf et al.
# Submitted via: audiograbber 1.83.01
#
DISCID=7006820a
DTITLE=Smiley Burnette - Smiley Burnette and His Rodeo Songaree
DYEAR=1959
DGENRE=Country
TTITLE0=Gran'pa Frog
TTITLE1=Thievin' Burro
TTITLE2=Medley: No Kids - Prairie Dog Lament
TTITLE3=Deep Froggy Blues
TTITLE4=Medley: Red River Valley - Clementine
TTITLE5=Boss of the Town
TTITLE6=Smart Alec Crow
TTITLE7=Medley: Way Down Low - I Wish I'd Said That
TTITLE8=Pussy Foot
TTITLE9=Medley: Buffalo Gals - Comin' Round the Mountain
EXTD=
EXTT0=
EXTT1=
EXTT2=
EXTT3=
EXTT4=
EXTT5=
EXTT6=
EXTT7=
EXTT8=
EXTT9=
PLAYORDER=
